<?xml version="1.0" encoding="utf-8"?>
<!-- Generator: Adobe Illustrator 22.1.0, SVG Export Plug-In . SVG Version: 6.00 Build 0)  -->
<svg version="1.1" id="Capa_1" xmlns="http://www.w3.org/2000/svg" xmlns:xlink="http://www.w3.org/1999/xlink" x="0px" y="0px"
	 viewBox="0 0 460 460" style="enable-background:new 0 0 460 460;" xml:space="preserve">
<style type="text/css">
	.st0{fill:#E97D2A;}
</style>
<g id="XMLID_1062_">
	<path id="XMLID_1074_" class="st0" d="M317.1,198.8h-17.3v-29.4c0-38.5-31.3-69.8-69.8-69.8s-69.8,31.3-69.8,69.8v29.4h-17.3
		c-4.2,0-7.5,3.4-7.5,7.5V286c0,16.1,13.1,29.2,29.2,29.2h131c16.1,0,29.2-13.1,29.2-29.2v-79.6
		C324.7,202.2,321.3,198.8,317.1,198.8z M175.3,169.4c0-30.2,24.5-54.7,54.7-54.7s54.7,24.5,54.7,54.7v29.4h-12.3v-25.2
		c0-23.4-19-42.4-42.4-42.4s-42.4,19-42.4,42.4v25.2h-12.3V169.4z M202.7,198.8v-25.2c0-15.1,12.3-27.3,27.3-27.3
		s27.3,12.3,27.3,27.3v25.2L202.7,198.8L202.7,198.8z M309.6,286c0,7.8-6.3,14.1-14.1,14.1h-131c-7.8,0-14.1-6.3-14.1-14.1v-72.1
		h159.2L309.6,286L309.6,286z"/>
	<path id="XMLID_1901_" class="st0" d="M230,237c-4.2,0-7.5,3.4-7.5,7.5v24.9c0,4.2,3.4,7.5,7.5,7.5s7.5-3.4,7.5-7.5v-24.9
		C237.5,240.4,234.2,237,230,237z"/>
	<path id="XMLID_1904_" class="st0" d="M324.9,0H135.1c-31.7,0-57.5,25.8-57.5,57.5v345c0,31.7,25.8,57.5,57.5,57.5h189.8
		c31.7,0,57.5-25.8,57.5-57.5v-345C382.4,25.8,356.6,0,324.9,0z M92.7,61.5h274.6v311H92.7V61.5z M135.1,15.1h189.8
		c19.6,0,36.1,13.3,40.9,31.3H94.2C99.1,28.4,115.6,15.1,135.1,15.1z M324.9,444.9H135.1c-23.4,0-42.4-19-42.4-42.4v-14.9h274.6
		v14.9C367.3,425.9,348.3,444.9,324.9,444.9z"/>
	<path id="XMLID_1920_" class="st0" d="M250.7,403.5h-41.4c-4.2,0-7.5,3.4-7.5,7.5c0,4.2,3.4,7.5,7.5,7.5h41.4
		c4.2,0,7.5-3.4,7.5-7.5C258.2,406.9,254.9,403.5,250.7,403.5z"/>
</g>
</svg>
