<?xml version="1.0" encoding="utf-8"?>
<!-- Generator: Adobe Illustrator 22.1.0, SVG Export Plug-In . SVG Version: 6.00 Build 0)  -->
<svg version="1.1" id="Layer_1" xmlns="http://www.w3.org/2000/svg" xmlns:xlink="http://www.w3.org/1999/xlink" x="0px" y="0px"
	 viewBox="0 0 937.5 937.5" style="enable-background:new 0 0 937.5 937.5;" xml:space="preserve">
<style type="text/css">
	.st0{fill:#E97D2A;}
</style>
<g id="surface1">
	<path class="st0" d="M453.1,843.8h31.2V875h-31.2V843.8z"/>
	<path class="st0" d="M750,384.6V78.1C749.9,35,715,0.1,671.9,0H265.6c-43.1,0.1-78.1,35-78.1,78.1v78.1h31.2V125h500v431l-28-28
		c-9.5-9.5-21.4-16-34.5-18.9V265.6c-0.1-43.1-35-78.1-78.1-78.1h-500C35,187.6,0.1,222.5,0,265.6v281.2C0.1,590,35,624.9,78.1,625
		h500c3-0.1,6-0.4,9-0.9c1.2,1.4,2.1,2.8,3.4,4.1l124.8,124.8l-4.2,8.4c-3.2,6.4-6.1,13-8.6,19.8H218.8v-125h-31.2v203.1
		c0.1,43.1,35,78.1,78.1,78.1h406.2c10.8-0.1,21.4-2.4,31.2-6.8v6.8h31.2v-15.6c0-2-0.4-4-1.1-5.8c-18.2-45.6-16.1-96.7,5.8-140.6
		l9.2-18.5c3-6,1.8-13.3-2.9-18L612.6,606.1c-15.1-15.5-14.9-40.3,0.4-55.6c15.3-15.3,40.1-15.5,55.6-0.4l164.1,164.1l22.1-22.1
		L750,587.3V431l121.5,133.4c22.4,25.6,34.8,58.5,34.8,92.6v280.5h31.2V657c0-41.7-15.2-82-42.7-113.4L750,384.6z M265.6,906.2
		c-25.9,0-46.9-21-46.9-46.9v-46.9h475.2c-5.8,28.9-5.3,58.6,1.6,87.3c-7.2,4.2-15.3,6.4-23.6,6.5H265.6z M592.3,526.6
		c0.9-3.6,1.4-7.2,1.4-10.9c0.1-18.5-10.8-35.3-27.7-42.9c-16.9-7.5-36.7-4.3-50.4,8.2c-18.7-17-47.6-16.1-65.2,2.1
		c-17.6,18.2-17.6,47.1,0,65.2c17.6,18.2,46.5,19.1,65.2,2.1c16.3,15,41,16.3,58.8,3.1c-4.8,12.9-5.7,26.9-2.7,40.3H78.1
		c-25.9,0-46.9-21-46.9-46.9V265.6c0-25.9,21-46.9,46.9-46.9h500c25.9,0,46.9,21,46.9,46.9v243.5
		C612.8,511.9,601.5,517.9,592.3,526.6z M562.5,515.6c0,8.6-7,15.6-15.6,15.6s-15.6-7-15.6-15.6s7-15.6,15.6-15.6
		S562.5,507,562.5,515.6z M500,515.6c0,8.6-7,15.6-15.6,15.6s-15.6-7-15.6-15.6s7-15.6,15.6-15.6S500,507,500,515.6z M218.8,93.8
		V78.1c0-25.9,21-46.9,46.9-46.9h406.2c25.9,0,46.9,21,46.9,46.9v15.6H218.8z"/>
	<path class="st0" d="M171.9,375c8.6,0,15.6-7,15.6-15.6v-93.8c0-8.6-7-15.6-15.6-15.6H78.1c-8.6,0-15.6,7-15.6,15.6v93.8
		c0,8.6,7,15.6,15.6,15.6H171.9z M93.8,281.2h62.5v62.5H93.8V281.2z"/>
	<path class="st0" d="M78.1,406.2h62.5v31.2H78.1V406.2z"/>
	<path class="st0" d="M78.1,484.4h62.5v31.2H78.1V484.4z"/>
	<path class="st0" d="M343.8,484.4h62.5v31.2h-62.5V484.4z"/>
	<path class="st0" d="M171.9,406.2h62.5v31.2h-62.5V406.2z"/>
	<path class="st0" d="M265.6,406.2h62.5v31.2h-62.5V406.2z"/>
	<path class="st0" d="M359.4,406.2h62.5v31.2h-62.5V406.2z"/>
	<path class="st0" d="M453.1,406.2h62.5v31.2h-62.5V406.2z"/>
	<path class="st0" d="M546.9,265.6h31.2v31.2h-31.2V265.6z"/>
	<path class="st0" d="M484.4,265.6h31.2v31.2h-31.2V265.6z"/>
	<path class="st0" d="M421.9,265.6h31.2v31.2h-31.2V265.6z"/>
	<path class="st0" d="M359.4,265.6h31.2v31.2h-31.2V265.6z"/>
</g>
</svg>
