<?xml version="1.0" encoding="utf-8"?>
<!-- Generator: Adobe Illustrator 22.1.0, SVG Export Plug-In . SVG Version: 6.00 Build 0)  -->
<svg version="1.1" id="Layer_1" xmlns="http://www.w3.org/2000/svg" xmlns:xlink="http://www.w3.org/1999/xlink" x="0px" y="0px"
	 viewBox="0 0 512 512" style="enable-background:new 0 0 512 512;" xml:space="preserve">
<style type="text/css">
	.st0{fill:#E97D2A;}
</style>
<path class="st0" d="M462,66H190c-5.5,0-10,4.5-10,10s4.5,10,10,10h272c16.5,0,30,13.5,30,30v280c0,16.5-13.5,30-30,30H50
	c-16.5,0-30-13.5-30-30V116c0-16.5,13.5-30,30-30h60c5.5,0,10-4.5,10-10s-4.5-10-10-10H50C22.4,66,0,88.4,0,116v280
	c0,27.6,22.4,50,50,50h412c27.6,0,50-22.4,50-50V116C512,88.4,489.6,66,462,66z"/>
<path class="st0" d="M150,118c-52.9,0-96,43.1-96,96s43.1,96,96,96s96-43.1,96-96S202.9,118,150,118z M106.6,276.3
	c7.2-17.3,24.2-28.9,43.4-28.9s36.2,11.6,43.4,28.9c-12.3,8.6-27.3,13.7-43.4,13.7S118.9,284.9,106.6,276.3z M131.8,209.2v-3.8
	c0-10,8.2-18.2,18.2-18.2s18.2,8.2,18.2,18.2v3.8c0,10-8.2,18.2-18.2,18.2S131.8,219.2,131.8,209.2z M208.8,262.1
	C202,249.8,191.5,240,179,234c5.7-6.7,9.2-15.3,9.2-24.8v-3.8c0-21.1-17.1-38.2-38.2-38.2s-38.2,17.1-38.2,38.2v3.8
	c0,9.5,3.5,18.1,9.2,24.8c-12.5,6-23,15.8-29.8,28.1C80.5,249,74,232.2,74,214c0-41.9,34.1-76,76-76s76,34.1,76,76
	C226,232.2,219.5,249,208.8,262.1z"/>
<path class="st0" d="M304,266h144c5.5,0,10-4.5,10-10v-80c0-5.5-4.5-10-10-10H304c-5.5,0-10,4.5-10,10v80
	C294,261.5,298.5,266,304,266z M314,186h124v60H314V186z"/>
<path class="st0" d="M304,306h144c5.5,0,10-4.5,10-10s-4.5-10-10-10H304c-5.5,0-10,4.5-10,10S298.5,306,304,306z"/>
<path class="st0" d="M296.9,343.1c1.9,1.9,4.4,2.9,7.1,2.9s5.2-1.1,7.1-2.9s2.9-4.4,2.9-7.1s-1.1-5.2-2.9-7.1s-4.4-2.9-7.1-2.9
	s-5.2,1.1-7.1,2.9s-2.9,4.4-2.9,7.1S295.1,341.2,296.9,343.1z"/>
<path class="st0" d="M336.9,328.9c-1.9,1.9-2.9,4.4-2.9,7.1s1.1,5.2,2.9,7.1s4.4,2.9,7.1,2.9s5.2-1.1,7.1-2.9s2.9-4.4,2.9-7.1
	s-1.1-5.2-2.9-7.1s-4.4-2.9-7.1-2.9S338.8,327.1,336.9,328.9z"/>
<path class="st0" d="M448,326h-64c-5.5,0-10,4.5-10,10s4.5,10,10,10h64c5.5,0,10-4.5,10-10S453.5,326,448,326z"/>
<path class="st0" d="M221.7,340.1c0-5.5-4.5-10-10-10H88.3c-5.5,0-10,4.5-10,10c0,5.5,4.5,10,10,10h123.3
	C217.2,350.1,221.7,345.6,221.7,340.1z"/>
<path class="st0" d="M104.3,370.1c-5.5,0-10,4.5-10,10c0,5.5,4.5,10,10,10h91.3c5.5,0,10-4.5,10-10c0-5.5-4.5-10-10-10H104.3z"/>
<path class="st0" d="M150,86c2.6,0,5.2-1.1,7.1-2.9s2.9-4.4,2.9-7.1s-1.1-5.2-2.9-7.1S152.6,66,150,66s-5.2,1.1-7.1,2.9
	S140,73.4,140,76s1.1,5.2,2.9,7.1S147.4,86,150,86z"/>
</svg>
