<?xml version="1.0" encoding="utf-8"?>
<!-- Generator: Adobe Illustrator 22.1.0, SVG Export Plug-In . SVG Version: 6.00 Build 0)  -->
<svg version="1.1" id="Layer_1" xmlns="http://www.w3.org/2000/svg" xmlns:xlink="http://www.w3.org/1999/xlink" x="0px" y="0px"
	 viewBox="0 0 504 504" style="enable-background:new 0 0 504 504;" xml:space="preserve">
<style type="text/css">
	.st0{fill:#E97D2A;}
</style>
<g>
	<g>
		<g>
			<path class="st0" d="M200,4H24C10.8,4,0,14.8,0,28l0,320.7L6.8,430c1,12.3,11.5,22,23.9,22h162.6c12.4,0,22.9-9.7,23.9-22l6.8-82
				V28C224,14.8,213.2,4,200,4z M16,28c0-4.4,3.6-8,8-8h176c4.4,0,8,3.6,8,8v16H16V28z M16,60h192l0,88H16V60z M201.2,428.7
				c-0.3,4.2-3.8,7.3-8,7.3H30.7c-4.2,0-7.6-3.2-8-7.3L16,348V164h192l0,183.3L201.2,428.7z"/>
			<rect x="32" y="180" class="st0" width="32" height="16"/>
			<rect x="96" y="180" class="st0" width="32" height="16"/>
			<rect x="160" y="180" class="st0" width="32" height="16"/>
			<rect x="32" y="212" class="st0" width="32" height="16"/>
			<rect x="96" y="212" class="st0" width="32" height="16"/>
			<rect x="160" y="212" class="st0" width="32" height="16"/>
			<rect x="32" y="244" class="st0" width="32" height="16"/>
			<rect x="96" y="244" class="st0" width="32" height="16"/>
			<rect x="160" y="244" class="st0" width="32" height="16"/>
			<rect x="32" y="276" class="st0" width="32" height="16"/>
			<rect x="96" y="276" class="st0" width="32" height="16"/>
			<rect x="160" y="276" class="st0" width="32" height="16"/>
			<path class="st0" d="M456,172H304c-22.1,0-40,17.9-40,40v248c0,22.1,17.9,40,40,40h152c22.1,0,40-17.9,40-40V212
				C496,189.9,478.1,172,456,172z M480,460c0,13.2-10.8,24-24,24H304c-13.2,0-24-10.8-24-24v-8h200V460z M480,436H280V228h200V436z
				 M280,212c0-13.2,10.8-24,24-24h152c13.2,0,24,10.8,24,24H280z"/>
			<rect x="352" y="460" class="st0" width="56" height="16"/>
			<path class="st0" d="M335.5,370.7c-4.6,4.4-7.5,10.5-7.5,17.3c0,13.2,10.8,24,24,24c10.4,0,19.2-6.7,22.5-16h35
				c3.3,9.3,12.1,16,22.5,16c13.2,0,24-10.8,24-24c0-8.8-4.8-16.4-11.9-20.6l19.9-33.2V316H352v16h94.7l-19.5,32.5
				c-8.3,1.7-14.9,7.7-17.7,15.5h-35c-3.3-9.3-12.1-16-22.5-16c-0.5,0-1,0.1-1.5,0.2l-16-72.2H296v16h25.6L335.5,370.7z M432,380
				c4.4,0,8,3.6,8,8s-3.6,8-8,8s-8-3.6-8-8S427.6,380,432,380z M352,380c4.4,0,8,3.6,8,8s-3.6,8-8,8s-8-3.6-8-8S347.6,380,352,380z"
				/>
			<path class="st0" d="M360,124c0,13.2,10.8,24,24,24s24-10.8,24-24s-10.8-24-24-24S360,110.8,360,124z M392,124c0,4.4-3.6,8-8,8
				s-8-3.6-8-8s3.6-8,8-8S392,119.6,392,124z"/>
			<path class="st0" d="M424,124h16c0-30.9-25.1-56-56-56s-56,25.1-56,56h16c0-22.1,17.9-40,40-40S424,101.9,424,124z"/>
			<path class="st0" d="M472,124c0-48.5-39.5-88-88-88s-88,39.5-88,88h16c0-39.7,32.3-72,72-72s72,32.3,72,72H472z"/>
			<path class="st0" d="M384,20c57.3,0,104,46.7,104,104h16C504,57.8,450.2,4,384,4c-66.2,0-120,53.8-120,120h16
				C280,66.7,326.7,20,384,20z"/>
		</g>
	</g>
</g>
</svg>
