<?xml version="1.0" encoding="utf-8"?>
<!-- Generator: Adobe Illustrator 22.1.0, SVG Export Plug-In . SVG Version: 6.00 Build 0)  -->
<svg version="1.1" id="Capa_1" xmlns="http://www.w3.org/2000/svg" xmlns:xlink="http://www.w3.org/1999/xlink" x="0px" y="0px"
	 viewBox="0 0 512 512" style="enable-background:new 0 0 512 512;" xml:space="preserve">
<style type="text/css">
	.st0{fill:#E97D2A;}
</style>
<g>
	<g>
		<g>
			<circle class="st0" cx="53.3" cy="53.3" r="10.7"/>
			<circle class="st0" cx="96" cy="53.3" r="10.7"/>
			<circle class="st0" cx="138.7" cy="53.3" r="10.7"/>
			<path class="st0" d="M434.2,355.1c-4.2-4.2-10.9-4.2-15.1,0l-24.5,24.5l-24.5-24.5c-4.2-4.2-10.9-4.2-15.1,0
				c-4.2,4.2-4.2,10.9,0,15.1l24.5,24.5l-24.5,24.5c-4.2,4.2-4.2,10.9,0,15.1c2.1,2.1,4.8,3.1,7.5,3.1s5.5-1,7.5-3.1l24.5-24.5
				l24.5,24.5c2.1,2.1,4.8,3.1,7.5,3.1s5.5-1,7.5-3.1c4.2-4.2,4.2-10.9,0-15.1l-24.5-24.5l24.5-24.5
				C438.4,366,438.4,359.3,434.2,355.1z"/>
			<path class="st0" d="M469.3,304.2V42.7c0-23.5-19.1-42.7-42.7-42.7h-384C19.1,0,0,19.1,0,42.7v384c0,23.5,19.1,42.7,42.7,42.7
				h261.6c21.5,26,54.1,42.7,90.4,42.7c64.7,0,117.3-52.6,117.3-117.3C512,358.3,495.4,325.8,469.3,304.2z M21.3,42.7
				c0-11.8,9.6-21.3,21.3-21.3h384c11.8,0,21.3,9.6,21.3,21.3v42.7H21.3V42.7z M42.7,448c-11.8,0-21.3-9.6-21.3-21.3v-320H448v183.6
				c-16-8.2-34.1-13-53.3-13c-64.7,0-117.3,52.6-117.3,117.3c0,19.2,4.7,37.3,13,53.3H42.7z M394.7,490.7c-52.9,0-96-43.1-96-96
				s43.1-96,96-96s96,43.1,96,96S447.6,490.7,394.7,490.7z"/>
		</g>
	</g>
</g>
</svg>
