<?xml version="1.0" encoding="utf-8"?>
<!-- Generator: Adobe Illustrator 22.1.0, SVG Export Plug-In . SVG Version: 6.00 Build 0)  -->
<svg version="1.1" id="Layer_1" xmlns="http://www.w3.org/2000/svg" xmlns:xlink="http://www.w3.org/1999/xlink" x="0px" y="0px"
	 viewBox="0 0 496 496" style="enable-background:new 0 0 496 496;" xml:space="preserve">
<style type="text/css">
	.st0{fill:#4E5D7D;}
</style>
<g>
	<g>
		<g>
			<path class="st0" d="M412.7,157c3.4,1.8,7.2,3,11.3,3h48c13.2,0,24-10.8,24-24V88c0-13.2-10.8-24-24-24h-48
				c-13.2,0-24,10.8-24,24v48c0,3.3,0.7,6.4,1.8,9.2L368,172.7V168c0-13.2-10.8-24-24-24h-88V96h16c13.2,0,24-10.8,24-24V24
				c0-13.2-10.8-24-24-24h-48c-13.2,0-24,10.8-24,24v48c0,13.2,10.8,24,24,24h16v48h-88c-13.2,0-24,10.8-24,24v4.7l-33.8-27.5
				c1.2-2.8,1.8-5.9,1.8-9.2V88c0-13.2-10.8-24-24-24H24C10.8,64,0,74.8,0,88v48c0,13.2,10.8,24,24,24h48c4.1,0,7.9-1.1,11.3-3
				l44.7,36.3V272H96v-16c0-13.2-10.8-24-24-24H24c-13.2,0-24,10.8-24,24v48c0,13.2,10.8,24,24,24h48c13.2,0,24-10.8,24-24v-16h32
				v184c0,13.2,10.8,24,24,24h192c13.2,0,24-10.8,24-24V288h32v16c0,13.2,10.8,24,24,24h48c13.2,0,24-10.8,24-24v-48
				c0-13.2-10.8-24-24-24h-48c-13.2,0-24,10.8-24,24v16h-32v-78.7L412.7,157z M416,88c0-4.4,3.6-8,8-8h48c4.4,0,8,3.6,8,8v48
				c0,4.4-3.6,8-8,8h-48c-4.4,0-8-3.6-8-8V88z M80,136c0,4.4-3.6,8-8,8H24c-4.4,0-8-3.6-8-8V88c0-4.4,3.6-8,8-8h48c4.4,0,8,3.6,8,8
				V136z M80,304c0,4.4-3.6,8-8,8H24c-4.4,0-8-3.6-8-8v-48c0-4.4,3.6-8,8-8h48c4.4,0,8,3.6,8,8V304z M224,80c-4.4,0-8-3.6-8-8V24
				c0-4.4,3.6-8,8-8h48c4.4,0,8,3.6,8,8v48c0,4.4-3.6,8-8,8H224z M256,200h78.4l-41.9,34.1c-9.7-9.4-22.4-15.7-36.5-17.5L256,200
				L256,200z M248,232c26.5,0,48,21.5,48,48s-21.5,48-48,48s-48-21.5-48-48S221.5,232,248,232z M161.6,200H240v16.6
				c-14.1,1.8-26.7,8.1-36.5,17.5L161.6,200z M144,168c0-4.4,3.6-8,8-8h88v24h-96V168z M144,206.3l49.5,40.2
				c-4.7,7.6-7.8,16.2-9,25.4H144V206.3z M352,472c0,4.4-3.6,8-8,8H152c-4.4,0-8-3.6-8-8v-40h208V472z M352,416H144V288h40.6
				c4,31.5,30.9,56,63.4,56s59.5-24.5,63.4-56H352V416z M352,272h-40.6c-1.2-9.2-4.3-17.8-9-25.4l49.5-40.2V272z M352,184h-96v-24
				h88c4.4,0,8,3.6,8,8V184z M416,256c0-4.4,3.6-8,8-8h48c4.4,0,8,3.6,8,8v48c0,4.4-3.6,8-8,8h-48c-4.4,0-8-3.6-8-8V256z"/>
			<rect x="208" y="448" class="st0" width="80" height="16"/>
			<rect x="240" y="40" class="st0" width="16" height="16"/>
			<rect x="40" y="104" class="st0" width="16" height="16"/>
			<rect x="440" y="104" class="st0" width="16" height="16"/>
			<rect x="440" y="272" class="st0" width="16" height="16"/>
			<rect x="40" y="272" class="st0" width="16" height="16"/>
			<path class="st0" d="M288,352h-80c-13.2,0-24,10.8-24,24s10.8,24,24,24h80c13.2,0,24-10.8,24-24S301.2,352,288,352z M288,384h-80
				c-4.4,0-8-3.6-8-8s3.6-8,8-8h80c4.4,0,8,3.6,8,8S292.4,384,288,384z"/>
		</g>
	</g>
</g>
</svg>
