<?xml version="1.0" encoding="utf-8"?>
<!-- Generator: Adobe Illustrator 22.1.0, SVG Export Plug-In . SVG Version: 6.00 Build 0)  -->
<svg version="1.1" id="Layer_1" xmlns="http://www.w3.org/2000/svg" xmlns:xlink="http://www.w3.org/1999/xlink" x="0px" y="0px"
	 viewBox="0 0 496 496" style="enable-background:new 0 0 496 496;" xml:space="preserve">
<style type="text/css">
	.st0{fill:#4E5D7D;}
</style>
<g>
	<g>
		<g>
			<path class="st0" d="M364,336h40c11,0,20,9,20,20h16c0-19.8-16.2-36-36-36h-12v-16h-16v16h-12c-19.8,0-36,16.2-36,36
				s16.2,36,36,36h40c11,0,20,9,20,20s-9,20-20,20h-40c-11,0-20-9-20-20h-16c0,19.8,16.2,36,36,36h12v16h16v-16h12
				c19.8,0,36-16.2,36-36s-16.2-36-36-36h-40c-11,0-20-9-20-20S353,336,364,336z"/>
			<path class="st0" d="M496,248C496,111.2,384.8,0,248,0S0,111.2,0,248c0,13.4,1.1,26.8,3.3,40H0v64h32v48h16v32H16v64h240v-48h32
				v-6.6c19.6,32.6,55.2,54.6,96,54.6c61.8,0,112-50.2,112-112c0-19.6-5.1-38-13.9-54C491.3,303.7,496,276.1,496,248z M479.8,240
				h-96v0c-0.8-32.1-5.9-60.6-13.9-85.7c38.6-9.7,62.5-22.3,74.3-29.8C465.5,158.1,478.3,197.6,479.8,240z M479.6,256
				c-0.7,19.4-3.7,38.5-9.1,57.1C450,288,418.9,272,384,272c-0.3,0-0.6,0-1,0c0.4-5.3,0.6-10.7,0.8-16H479.6z M435.2,111.1
				c-10.8,6.7-33.6,18.6-70.5,27.8c-23.5-61.8-63-101-88.5-121.2C341.3,25.7,398.2,60.7,435.2,111.1z M256,22.6
				c21.4,15.1,67,53.2,92.9,119.9c-25.2,5.2-56,8.9-92.9,9.4V22.6z M256,240v-72.1c39.1-0.5,71.7-4.5,98.3-10
				c7.7,24,12.7,51.3,13.5,82.1H288L256,240L256,240z M256,272v-16h16v32h-32h-8H64v-32h16v16h16v-16h16v16h16v-16h16v16h16v-16h16
				v16h16v-16h16v16h16v-16h16v16H256z M80,368v-16h16v16h16v-16h16v16h16v-16h16v16h16v-16h16v16h16v-16h16v16h16v-16h16v32H56h-8
				v-32h16v16H80z M128.2,240c0.8-30.8,5.8-58.1,13.5-82.1c26.6,5.6,59.2,9.6,98.3,10V240H128.2z M240,151.9
				c-36.9-0.5-67.7-4.2-92.9-9.4C173,75.9,218.6,37.7,240,22.6V151.9z M219.9,17.8C194.4,38,154.8,77.2,131.3,139
				c-37-9.2-59.7-21.1-70.5-27.8C97.8,60.7,154.7,25.7,219.9,17.8z M51.8,124.4c11.8,7.5,35.7,20.1,74.3,29.8
				c-7.9,25.1-13.1,53.6-13.9,85.7H48H16.2C17.6,197.6,30.5,158.1,51.8,124.4z M48,256v32H19.5c-1.8-10.6-3-21.3-3.3-32H48z M40,336
				h-8H16v-32h16v16h16v-16h16v16h16v-16h16v16h16v-16h16v16h16v-16h16v16h16v-16h16v16h16v-16h16v32H40z M240,480H32v-32h16v16h16
				v-16h16v16h16v-16h16v16h16v-16h16v16h16v-16h16v16h16v-16h16v16h16v-16h16V480z M272,432h-16h-8H64v-32h16v16h16v-16h16v16h16
				v-16h16v16h16v-16h16v16h16v-16h16v16h16v-16h16v16h16v-16h16V432z M272,384v-48h-32v-32h48v-48h79.8c-0.1,5.8-0.4,11.6-0.9,17.4
				C313.2,281.7,272,328.1,272,384z M384,480c-52.9,0-96-43.1-96-96s43.1-96,96-96s96,43.1,96,96S436.9,480,384,480z"/>
		</g>
	</g>
</g>
</svg>
