<?xml version="1.0" encoding="utf-8"?>
<!-- Generator: Adobe Illustrator 22.1.0, SVG Export Plug-In . SVG Version: 6.00 Build 0)  -->
<svg version="1.1" id="Layer_1" xmlns="http://www.w3.org/2000/svg" xmlns:xlink="http://www.w3.org/1999/xlink" x="0px" y="0px"
	 viewBox="0 0 496 496" style="enable-background:new 0 0 496 496;" xml:space="preserve">
<style type="text/css">
	.st0{fill:#4E5D7D;}
</style>
<g>
	<g>
		<g>
			<path class="st0" d="M304,416H16V64h288h8h8V24c0-13.2-10.8-24-24-24H24C10.8,0,0,10.8,0,24v448c0,13.2,10.8,24,24,24h272
				c13.2,0,24-10.8,24-24v-56h-8H304z M16,24c0-4.4,3.6-8,8-8h272c4.4,0,8,3.6,8,8v24H16V24z M304,472c0,4.4-3.6,8-8,8H24
				c-4.4,0-8-3.6-8-8v-40h288V472z"/>
			<rect x="128" y="448" class="st0" width="64" height="16"/>
			<path class="st0" d="M280,160c0-44.1-35.9-80-80-80s-80,35.9-80,80s35.9,80,80,80S280,204.1,280,160z M136,160
				c0-35.3,28.7-64,64-64s64,28.7,64,64s-28.7,64-64,64S136,195.3,136,160z"/>
			<rect x="264" y="80" class="st0" width="200" height="16"/>
			<rect x="480" y="80" class="st0" width="16" height="16"/>
			<rect x="264" y="224" class="st0" width="184" height="16"/>
			<rect x="464" y="224" class="st0" width="16" height="16"/>
			<rect x="296" y="128" class="st0" width="152" height="16"/>
			<rect x="464" y="128" class="st0" width="16" height="16"/>
			<rect x="312" y="176" class="st0" width="152" height="16"/>
			<rect x="480" y="176" class="st0" width="16" height="16"/>
			<path class="st0" d="M208,216v-16c13.2,0,24-10.8,24-24s-10.8-24-24-24h-16c-4.4,0-8-3.6-8-8s3.6-8,8-8h16c4.4,0,8,3.6,8,8h16
				c0-13.2-10.8-24-24-24v-16h-16v16c-13.2,0-24,10.8-24,24s10.8,24,24,24h16c4.4,0,8,3.6,8,8s-3.6,8-8,8h-16c-4.4,0-8-3.6-8-8h-16
				c0,13.2,10.8,24,24,24v16H208z"/>
			<path class="st0" d="M384,320h95.4l-12.9,32.2c-0.8-0.1-1.6-0.2-2.5-0.2c-10.4,0-19.2,6.7-22.5,16h-35
				c-3-8.3-10.3-14.5-19.3-15.7L365.8,288H336v16h18.2l17.2,51.6c-6.8,4.2-11.4,11.7-11.4,20.4c0,13.2,10.8,24,24,24
				c10.4,0,19.2-6.7,22.5-16h35c3.3,9.3,12.1,16,22.5,16c13.2,0,24-10.8,24-24c0-6.6-2.7-12.6-7-16.9l15-37.5V304H384V320z M384,384
				c-4.4,0-8-3.6-8-8c0-2.8,1.5-5.1,3.7-6.6l4.3-1.4c4.4,0,8,3.6,8,8S388.4,384,384,384z M464,384c-4.4,0-8-3.6-8-8s3.6-8,8-8
				s8,3.6,8,8S468.4,384,464,384z"/>
			<rect x="176" y="384" class="st0" width="168" height="16"/>
			<rect x="144" y="384" class="st0" width="16" height="16"/>
			<rect x="192" y="336" class="st0" width="152" height="16"/>
			<rect x="176" y="288" class="st0" width="144" height="16"/>
			<rect x="144" y="288" class="st0" width="16" height="16"/>
			<rect x="160" y="336" class="st0" width="16" height="16"/>
		</g>
	</g>
</g>
</svg>
