<?xml version="1.0" encoding="utf-8"?>
<!-- Generator: Adobe Illustrator 22.1.0, SVG Export Plug-In . SVG Version: 6.00 Build 0)  -->
<svg version="1.1" id="Layer_1" xmlns="http://www.w3.org/2000/svg" xmlns:xlink="http://www.w3.org/1999/xlink" x="0px" y="0px"
	 viewBox="0 0 496 496" style="enable-background:new 0 0 496 496;" xml:space="preserve">
<style type="text/css">
	.st0{fill:#4E5D7D;}
</style>
<g>
	<g>
		<g>
			<path class="st0" d="M456,0H40C17.9,0,0,17.9,0,40v248v8v40h16v112H0v48h256v-48h-16V336h16v-16h200c22.1,0,40-17.9,40-40V40
				C496,17.9,478.1,0,456,0z M240,480H16v-16h224V480z M32,416v-16h16v-16H32v-16h16v-16H32v-16h192v16h-16v16h16v16h-16v16h16v16
				h-16v16h16v16H32v-16h16v-16H32z M240,320H16v-16h224V320z M128,208c-26.5,0-48,21.5-48,48v32H48v-32c0-44.1,35.9-80,80-80
				s80,35.9,80,80v32h-32v-32C176,229.5,154.5,208,128,208z M160,256v32H96v-32c0-17.6,14.4-32,32-32S160,238.4,160,256z M480,280
				c0,13.2-10.8,24-24,24H256v-16h-32v-32c0-52.9-43.1-96-96-96s-96,43.1-96,96v32H16V128h464V280z M480,112H16V64h464V112z M480,48
				H16v-8c0-13.2,10.8-24,24-24h416c13.2,0,24,10.8,24,24V48z"/>
			<path class="st0" d="M336,288c11.3,0,22.3-3,32-8.6c9.7,5.6,20.7,8.6,32,8.6c35.3,0,64-28.7,64-64s-28.7-64-64-64
				c-11.3,0-22.3,3-32,8.6c-9.7-5.6-20.7-8.6-32-8.6c-35.3,0-64,28.7-64,64S300.7,288,336,288z M336,176c9.8,0,19.3,3,27.4,8.6
				l4.6,3.2l4.6-3.2c8.1-5.7,17.6-8.6,27.4-8.6c26.5,0,48,21.5,48,48s-21.5,48-48,48c-9.8,0-19.3-3-27.4-8.6l-4.6-3.2l-4.6,3.2
				c-8.1,5.7-17.6,8.6-27.4,8.6c-26.5,0-48-21.5-48-48S309.5,176,336,176z"/>
			<path class="st0" d="M104,432h48v-27c5.1-5.8,8-13.3,8-21c0-17.6-14.4-32-32-32s-32,14.4-32,32c0,7.7,2.9,15.2,8,21V432z
				 M128,368c8.8,0,16,7.2,16,16c0,4.5-1.9,8.7-5.4,11.8l-2.6,2.4V416h-16v-17.8l-2.6-2.4c-3.5-3.1-5.4-7.3-5.4-11.8
				C112,375.2,119.2,368,128,368z"/>
		</g>
	</g>
</g>
</svg>
