<?xml version="1.0" encoding="utf-8"?>
<!-- Generator: Adobe Illustrator 22.1.0, SVG Export Plug-In . SVG Version: 6.00 Build 0)  -->
<svg version="1.1" id="Layer_1" xmlns="http://www.w3.org/2000/svg" xmlns:xlink="http://www.w3.org/1999/xlink" x="0px" y="0px"
	 viewBox="0 0 480 480" style="enable-background:new 0 0 480 480;" xml:space="preserve">
<style type="text/css">
	.st0{fill:#FFFFFF;}
</style>
<path class="st0" d="M440,256h-16v-48c0-22.1-17.9-40-40-40h-64V40c0-22.1-17.9-40-40-40H72C49.9,0,32,17.9,32,40v400
	c0,22.1,17.9,40,40,40h208c22.1,0,40-17.9,40-40v-56h120c4.4,0,8-3.6,8-8V264C448,259.6,444.4,256,440,256z M384,184
	c13.3,0,24,10.7,24,24v48h-8v-40c0-13.3-10.7-24-24-24h-48c-13.3,0-24,10.7-24,24v40h-8v-48c0-13.3,10.7-24,24-24H384z M384,256h-64
	v-40c0-4.4,3.6-8,8-8h48c4.4,0,8,3.6,8,8V256z M72,16h208c13.3,0,24,10.7,24,24v8H48v-8C48,26.7,58.7,16,72,16z M280,464H72
	c-13.3,0-24-10.7-24-24v-24h256v24C304,453.3,293.3,464,280,464z M304,400H48V64h256v107.4c-14.6,6.4-24,20.7-24,36.6v48h-16
	c-4.4,0-8,3.6-8,8v112c0,4.4,3.6,8,8,8h40V400z M272,368v-24h24c4.4,0,8-3.6,8-8s-3.6-8-8-8h-24v-16h24c4.4,0,8-3.6,8-8s-3.6-8-8-8
	h-24v-24h160v24h-24c-4.4,0-8,3.6-8,8s3.6,8,8,8h24v16h-24c-4.4,0-8,3.6-8,8s3.6,8,8,8h24v24H272z"/>
<path class="st0" d="M352,296c-13.3,0-24,10.7-24,24s10.7,24,24,24s24-10.7,24-24S365.3,296,352,296z M352,328c-4.4,0-8-3.6-8-8
	s3.6-8,8-8s8,3.6,8,8S356.4,328,352,328z"/>
<path class="st0" d="M200,440c0-13.3-10.7-24-24-24s-24,10.7-24,24s10.7,24,24,24S200,453.3,200,440z M176,448c-4.4,0-8-3.6-8-8
	s3.6-8,8-8s8,3.6,8,8S180.4,448,176,448z"/>
<path class="st0" d="M160,24h32v16h-32V24z"/>
<path class="st0" d="M80,96h192v80h16V88c0-4.4-3.6-8-8-8H72c-4.4,0-8,3.6-8,8v288c0,4.4,3.6,8,8,8h176v-16H80V96z"/>
<path class="st0" d="M176,136c-44.2,0-80,35.8-80,80s35.8,80,80,80s80-35.8,80-80C256,171.8,220.2,136,176,136z M176,280
	c-35.3,0-64-28.7-64-64s28.7-64,64-64s64,28.7,64,64C240,251.3,211.3,280,176,280z"/>
<path class="st0" d="M168,236.7l-28.3-28.3l-11.3,11.3l39.6,39.6l62.2-62.2l-11.3-11.3L168,236.7z"/>
</svg>
