<?xml version="1.0" encoding="utf-8"?>
<!-- Generator: Adobe Illustrator 22.1.0, SVG Export Plug-In . SVG Version: 6.00 Build 0)  -->
<svg version="1.1" id="Layer_1" xmlns="http://www.w3.org/2000/svg" xmlns:xlink="http://www.w3.org/1999/xlink" x="0px" y="0px"
	 viewBox="0 0 512 512" style="enable-background:new 0 0 512 512;" xml:space="preserve">
<style type="text/css">
	.st0{fill:#4E5D7D;}
</style>
<path class="st0" d="M310.8,223.9V89.4c0-20.4-16.6-37-37-37H41c-20.4,0-37,16.6-37,37v134.5c0,20.4,16.6,37,37,37h106.7
	c3.5,0,6.8,1.3,9.3,3.7l38,35.9c15.9,15,42,3.6,41.9-18.2c0.5-5-1.8-11.6,3.9-17.3c2.6-2.6,6-4,9.6-4h23.4
	C294.2,260.9,310.8,244.3,310.8,223.9z M226.6,250.8c-12.7,12.8-9.2,27.7-9.7,31.5c0,4.3-5.1,6.5-8.2,3.6l-38-35.9
	c-6.3-5.9-14.4-9.1-23-9.1H41c-9.4,0-17-7.6-17-17V89.4c0-9.4,7.6-17,17-17h232.8c9.4,0,17,7.6,17,17v134.5c0,9.4-7.6,17-17,17
	h-23.4C241.4,240.9,233,244.4,226.6,250.8z"/>
<path class="st0" d="M70.8,84.9c-2.2,0-2.4,1-11.3,7.6c-5.4,3.5-0.2,12.3,4.3,8.2l0.7-0.7v37.4c0,5.4,11.7,5.4,11.7,0V89
	C76.1,86.5,73.3,84.9,70.8,84.9z"/>
<path class="st0" d="M131.7,103.1c0-12.1-7-18.1-18.5-18.1c-11.5,0-18.4,6-18.4,18.1v20.8c0,12.1,6.9,18.1,18.4,18.1
	c11.5,0,18.5-6,18.5-18.1V103.1z M120,123.9c0,5.2-2.2,7.6-6.8,7.6c-4.6,0-6.7-2.4-6.7-7.6v-20.8c0-5.2,2.1-7.6,6.7-7.6
	c4.7,0,6.8,2.4,6.8,7.6V123.9z"/>
<path class="st0" d="M110,110.5c-1.6,1.7-1.6,5,0,6.9c1.7,1.9,4.9,1.9,6.5,0c1.6-1.8,1.6-5.1,0-6.8
	C114.8,108.6,111.6,108.7,110,110.5z"/>
<path class="st0" d="M153,100.8l0.7-0.7v37.4c0,5.4,11.7,5.4,11.7,0V89c0-3.4-5.2-5.4-7.9-3.2c-8.2,6.8-11,7-11,11
	c0,1.2,0.4,2.3,1.1,3.3C149,102.1,151.5,102.2,153,100.8z"/>
<path class="st0" d="M191.9,85.9c-8.2,6.8-11,7-11,11c0,4,4,6.3,6.6,3.9l0.7-0.7v37.4c0,5.4,11.7,5.4,11.7,0V89
	C199.9,85.7,194.6,83.6,191.9,85.9z"/>
<path class="st0" d="M237,85.1c-11.5,0-18.4,6-18.4,18.1c0.9,16.1-2.6,27.9,5.1,34.5c6.7,5.8,20,5.8,26.7,0
	c7.7-6.6,4.2-18.4,5.1-34.5C255.5,91,248.5,85.1,237,85.1z M243.8,123.9c0,5.2-2.2,7.6-6.8,7.6c-4.6,0-6.7-2.4-6.7-7.6v-20.8
	c0-5.2,2.1-7.6,6.7-7.6c4.7,0,6.8,2.4,6.8,7.6V123.9z"/>
<path class="st0" d="M232.6,113.9c0,2.9,1.9,4.8,4.5,4.8c4.4,0,5.6-5.6,3.2-8.2C238.6,108.6,232.6,108.8,232.6,113.9z"/>
<path class="st0" d="M70.8,174.3c-2.2,0-2.4,1-11.3,7.6c-2.7,1.8-2.9,5.3-1.2,7.6c1.5,2,4,2,5.5,0.6l0.7-0.7
	c0.3,39.3-1.2,38.7,1.9,40.5c3.5,2,9.8,0.8,9.8-3.1v-48.4C76.1,175.9,73.3,174.3,70.8,174.3z"/>
<path class="st0" d="M102.6,175.2c-8.2,6.8-11,7-11,11c0,2.4,1.6,4.9,4.1,4.9c0.9,0,1.8-0.3,2.5-1l0.7-0.7v37.4
	c0,5.4,11.7,5.4,11.7,0v-48.4C110.6,175.1,105.3,173,102.6,175.2z"/>
<path class="st0" d="M147.8,198.5c-6.1,0-5.9,9.6,0,9.6c2.7,0,4.4-2.1,4.4-4.8S150.5,198.5,147.8,198.5z"/>
<path class="st0" d="M161.1,178.8c-6.8-5.8-20-5.8-26.7,0c-3.4,2.9-5.1,7.5-5.1,13.7c0.9,16.1-2.6,27.9,5.1,34.5
	c6.7,5.8,20,5.8,26.7,0c3.4-2.9,5.1-7.5,5.1-13.7C165.3,197,168.8,185.4,161.1,178.8z M154.5,213.3c0,5.2-2.2,7.6-6.8,7.6
	c-4.6,0-6.7-2.4-6.7-7.6v-20.8c0-5.2,2.1-7.6,6.7-7.6c4.7,0,6.8,2.4,6.8,7.6V213.3z"/>
<path class="st0" d="M198.1,175.4c-1.8-1.2-4.4-1.6-6.1-0.1l-8.7,6.7c-2.7,1.8-2.9,5.3-1.2,7.6c1.5,2,4,2,5.5,0.6l0.7-0.7v37.4
	c0,0.9,0.3,2.2,1.9,3.1c3.4,2,9.8,0.8,9.8-3.1C199.5,175.2,201,177.3,198.1,175.4z"/>
<path class="st0" d="M233.8,199.8c-1.6,1.7-1.6,5,0,6.9c1.7,1.9,4.9,1.9,6.5,0c1.6-1.8,1.6-5.1,0-6.8
	C239.5,199,235.4,198.1,233.8,199.8z"/>
<path class="st0" d="M237,174.4c-11.5,0-18.4,6-18.4,18.1v20.8c0,12.1,6.9,18.1,18.4,18.1c11.5,0,18.5-6,18.5-18.1v-20.8
	C255.5,180.4,248.5,174.4,237,174.4z M243.8,213.3c0,5.2-2.2,7.6-6.8,7.6c-4.6,0-6.7-2.4-6.7-7.6v-20.8c0-5.2,2.1-7.6,6.7-7.6
	c4.7,0,6.8,2.4,6.8,7.6V213.3z"/>
<path class="st0" d="M441.4,303.9c-3.2-1.5-5.2-4.6-5.2-8V172.4c0-8.3-3.5-16.3-9.7-21.8l-12.7-11.4c-1.9-1.7-2.1-4.6-0.6-6.6
	l13-16.7c7.8-10,6.2-24.2-3.6-32.2l-9.5-7.9c-2.3-1.9-2.4-5.3-0.3-7.3l14.3-13.7c12-11.5,8.4-25.8,9-30.8c0-13.2-10.8-24-24-24
	h-35.1c-18.5,0-33.5,15-33.5,33.5v262.4c0,3.4-2.1,6.6-5.2,8.1c-39.6,18.2-64.9,51.6-65.8,95.7C270.3,507,407,545.9,475.5,479
	c20.5-20,31.8-47.3,31.8-76.9C507.3,359,483.3,323.2,441.4,303.9z M387.5,491.9c-53.8-1.3-96.1-39.1-95-91.9
	c0.7-34.5,20-62.2,54.2-77.9c10.3-4.7,16.9-15,16.9-26.2V33.5c0-7.4,6-13.5,13.5-13.5h35.1c2.2,0,4,1.8,4,4
	c-0.5,7,1.5,12.1-2.9,16.4L399,54.1c-10.7,10.3-10.1,27.6,1.4,37.1l9.5,7.9c1.4,1.1,1.6,3.1,0.5,4.5l-13,16.7
	c-7.9,10.2-6.6,25.1,3,33.7l12.7,11.4c4.8,4.3,2.5,9.7,3.1,17.6H393c-5.5,0-10,4.5-10,10c0,5.5,4.5,10,10,10h23.2v27.6H393
	c-5.5,0-10,4.5-10,10c0,5.5,4.5,10,10,10h23.2v45.2c0,11.2,6.6,21.5,16.8,26.2c35,16.1,54.3,44.5,54.3,80
	C487.3,456.1,443.1,493.3,387.5,491.9z"/>
<path class="st0" d="M389.9,350.4c-16.2,0-30.5,4.4-41.1,12.9c-11.9,9.4-18.3,22.9-18.3,39s6.3,29.6,18.3,39
	c10.7,8.4,24.9,12.9,41.1,12.9c5.5,0,10-4.5,10-10c0-5.5-4.5-10-10-10c-19,0-39.4-8.4-39.4-31.9s20.4-31.9,39.4-31.9
	c18.4,0,38.4,7.9,39.4,30.3c0.2,5.5,4.9,9.8,10.4,9.6c5.5-0.2,9.8-4.9,9.6-10.4C448,370.2,424.2,350.4,389.9,350.4z"/>
<path class="st0" d="M426,422.5c-5.5,0-10,4.5-10,10s4.5,10,10,10h0c5.5,0,10-4.5,10-10S431.5,422.5,426,422.5z"/>
</svg>
