<svg id="Layer_1" data-name="Layer 1" xmlns="http://www.w3.org/2000/svg" viewBox="0 0 504 496"><defs><style>.cls-1{fill:#fff;}</style></defs><title>ico29</title><path class="cls-1" d="M200,4H24A24.07,24.07,0,0,0,0,28V348.7L6.8,430a24.12,24.12,0,0,0,23.9,22H193.3a24.12,24.12,0,0,0,23.9-22l6.8-82V28A24.07,24.07,0,0,0,200,4ZM16,28a8,8,0,0,1,8-8H200a8,8,0,0,1,8,8V44H16Zm0,32H208v88H16ZM201.2,428.7a7.9,7.9,0,0,1-8,7.3H30.7a8,8,0,0,1-8-7.3L16,348V164H208V347.3Z" transform="translate(0 -4)"/><rect class="cls-1" x="32" y="176" width="32" height="16"/><rect class="cls-1" x="96" y="176" width="32" height="16"/><rect class="cls-1" x="160" y="176" width="32" height="16"/><rect class="cls-1" x="32" y="208" width="32" height="16"/><rect class="cls-1" x="96" y="208" width="32" height="16"/><rect class="cls-1" x="160" y="208" width="32" height="16"/><rect class="cls-1" x="32" y="240" width="32" height="16"/><rect class="cls-1" x="96" y="240" width="32" height="16"/><rect class="cls-1" x="160" y="240" width="32" height="16"/><rect class="cls-1" x="32" y="272" width="32" height="16"/><rect class="cls-1" x="96" y="272" width="32" height="16"/><rect class="cls-1" x="160" y="272" width="32" height="16"/><path class="cls-1" d="M456,172H304a40,40,0,0,0-40,40V460a40,40,0,0,0,40,40H456a40,40,0,0,0,40-40V212A40,40,0,0,0,456,172Zm24,288a24.07,24.07,0,0,1-24,24H304a24.07,24.07,0,0,1-24-24v-8H480Zm0-24H280V228H480ZM280,212a24.07,24.07,0,0,1,24-24H456a24.07,24.07,0,0,1,24,24Z" transform="translate(0 -4)"/><rect class="cls-1" x="352" y="456" width="56" height="16"/><path class="cls-1" d="M335.5,370.7a23.92,23.92,0,1,0,39,25.3h35a23.92,23.92,0,1,0,34.6-28.6L464,334.2V316H352v16h94.7l-19.5,32.5A24,24,0,0,0,409.5,380h-35A23.92,23.92,0,0,0,352,364a7.72,7.72,0,0,0-1.5.2l-16-72.2H296v16h25.6ZM432,380a8,8,0,1,1-8,8A8,8,0,0,1,432,380Zm-80,0a8,8,0,1,1-8,8A8,8,0,0,1,352,380Z" transform="translate(0 -4)"/><path class="cls-1" d="M360,124a24,24,0,1,0,24-24A24.07,24.07,0,0,0,360,124Zm32,0a8,8,0,1,1-8-8A8,8,0,0,1,392,124Z" transform="translate(0 -4)"/><path class="cls-1" d="M424,124h16a56,56,0,0,0-112,0h16a40,40,0,0,1,80,0Z" transform="translate(0 -4)"/><path class="cls-1" d="M472,124a88,88,0,0,0-176,0h16a72,72,0,0,1,144,0Z" transform="translate(0 -4)"/><path class="cls-1" d="M384,20A104.18,104.18,0,0,1,488,124h16a120,120,0,0,0-240,0h16A104.18,104.18,0,0,1,384,20Z" transform="translate(0 -4)"/></svg>