<?xml version="1.0" encoding="utf-8"?>
<!-- Generator: Adobe Illustrator 22.1.0, SVG Export Plug-In . SVG Version: 6.00 Build 0)  -->
<svg version="1.1" id="Capa_1" xmlns="http://www.w3.org/2000/svg" xmlns:xlink="http://www.w3.org/1999/xlink" x="0px" y="0px"
	 viewBox="0 0 512 512" style="enable-background:new 0 0 512 512;" xml:space="preserve">
<style type="text/css">
	.st0{fill:#FFFFFF;}
</style>
<g>
	<g>
		<path class="st0" d="M328.8,134.3h-83.7c-5.5,0-10,4.5-10,10v49.9c0,5.5,4.5,10,10,10h83.7c5.5,0,10-4.5,10-10v-49.9
			C338.8,138.7,334.4,134.3,328.8,134.3z M318.8,184.2h-63.7v-29.9h63.7V184.2z"/>
	</g>
</g>
<g>
	<g>
		<path class="st0" d="M502,404.4h-37.9V237.2h35c5.5,0,10-4.5,10-10V32.7c0-5.5-4.5-10-10-10H215.9c-5.5,0-10,4.5-10,10V80H32.5
			C14.6,80,0,94.6,0,112.5V448c0,22.8,18.5,41.3,41.3,41.3h429.4c22.8,0,41.3-18.5,41.3-41.3v-33.7C512,408.8,507.5,404.4,502,404.4
			z M225.9,42.7h263.3v14.8H225.9V42.7z M225.9,77.5h263.3v18.2H225.9V77.5z M225.9,115.7h263.3v101.5H225.9V115.7z M444.1,237.2
			v167.2h-25.6V237.2H444.1z M215.9,237.2h182.7v167.2h-17.4V273.3c0-5.5-4.5-10-10-10H93.1c-5.5,0-10,4.5-10,10v131.1H65.6V145.6
			h140.3v81.6C205.9,232.7,210.3,237.2,215.9,237.2z M361.1,283.3v121.1H103.1V283.3H361.1z M20,112.5c0-6.9,5.6-12.5,12.5-12.5
			h173.4v25.6H55.6c-5.5,0-10,4.5-10,10v268.8H20V112.5z M492,448c0,11.7-9.6,21.3-21.3,21.3H41.3c-11.7,0-21.3-9.6-21.3-21.3v-23.7
			h472V448z"/>
	</g>
</g>
<g>
	<g>
		<path class="st0" d="M439.3,126.2c-7.6,0-14.7,2-20.9,5.4c-6.4-3.6-13.5-5.4-20.9-5.4c-23.7,0-43,19.3-43,43c0,23.7,19.3,43,43,43
			c7.4,0,14.6-1.9,20.9-5.4c6.2,3.4,13.3,5.4,20.9,5.4c23.7,0,43-19.3,43-43C482.3,145.5,463,126.2,439.3,126.2z M402.6,191.7
			c-1.6,0.4-3.4,0.6-5.1,0.6c-12.7,0-23-10.3-23-23s10.3-23,23-23c1.7,0,3.4,0.2,5.1,0.6c-4,6.5-6.3,14.2-6.3,22.5
			S398.6,185.1,402.6,191.7z M439.3,192.2c-12.7,0-23-10.3-23-23s10.3-23,23-23s23,10.3,23,23C462.3,181.9,452,192.2,439.3,192.2z"
			/>
	</g>
</g>
<g>
	<g>
		<path class="st0" d="M168.9,298.4h-25.4c-4.3,0-7.1,2.8-7.1,6v81.2c0,4.1,4.8,6.1,9.6,6.1c4.8,0,9.6-2,9.6-6.1v-27.6h12.1
			c16.9,0,30.2-8.2,30.2-29.6v-0.6C197.9,306.3,185.1,298.4,168.9,298.4z M178.7,330c0,8.7-4.2,12.8-11,12.8h-12.1v-27h12.1
			c6.9,0,11,4.1,11,12.8V330z"/>
	</g>
</g>
<g>
	<g>
		<path class="st0" d="M266.6,382.2l-22.9-77.9c-1.4-4.5-6.9-6.6-12.5-6.6c-5.6,0-11.2,2.2-12.5,6.6l-22.8,77.9
			c-0.1,0.5-0.2,1-0.2,1.4c0,4.7,7,8.2,12.3,8.2c3.1,0,5.5-1,6.3-3.7l4.2-16h25.9l4.2,16c0.7,2.7,3.2,3.7,6.3,3.7
			c5.3,0,12.3-3.4,12.3-8.2C266.9,383.2,266.7,382.7,266.6,382.2z M222.2,356.8l9-34.2l9,34.2L222.2,356.8L222.2,356.8z"/>
	</g>
</g>
<g>
	<g>
		<path class="st0" d="M318.2,298.4c-3.1,0-4.3,1.3-5.5,3.7l-17.1,32.8l-17.2-32.8c-1.4-2.4-2.5-3.7-5.5-3.7c-5.3,0-13,3.4-13,8.2
			c0,0.4,0,0.9,0.2,1.4l25.4,43.8c0.2,0.4,0.5,1,0.5,1.8h0v32.1c0,4.1,4.8,6.1,9.6,6.1c4.8,0,9.6-2,9.6-6.1v-32.1
			c0-0.8,0.2-1.4,0.5-1.8l25.3-43.8c0.2-0.5,0.2-1,0.2-1.4C331.2,301.9,323.4,298.4,318.2,298.4z"/>
	</g>
</g>
</svg>
