<?xml version="1.0" encoding="utf-8"?>
<!-- Generator: Adobe Illustrator 22.1.0, SVG Export Plug-In . SVG Version: 6.00 Build 0)  -->
<svg version="1.1" id="Layer_1" xmlns="http://www.w3.org/2000/svg" xmlns:xlink="http://www.w3.org/1999/xlink" x="0px" y="0px"
	 viewBox="0 0 496 496" style="enable-background:new 0 0 496 496;" xml:space="preserve">
<style type="text/css">
	.st0{fill:#4E5D7D;}
</style>
<g>
	<g>
		<g>
			<path class="st0" d="M288,64v326.2c-0.1-2.9-0.8-5.8-2-8.6c-2.6-5.8-7.6-10.3-13.6-12.3c-6-2-12.7-1.4-18.3,1.6l-17.6,9.6
				l2.4-7.2c2.3-6.8,1.2-14.3-3-20.1c-4.2-5.8-10.9-9.3-18.1-9.3c-9.2,0-17.3,5.5-20.7,14l-10.4,26h-24.7l-0.4-0.2l17.3-9.2
				c10.4-5.5,15.5-17.7,12.1-29c-2-6.5-6.4-11.8-12.5-14.9c-6.1-3.1-12.9-3.5-19.4-1.3l-65.6,23L69.7,368H40.2v-16H0v16h24.2v72H0
				v16h40.2v-11.1l6.1,3.1H153l80.8-16.2l41.5-20.2c8.3-4.1,13.1-12.5,12.8-21.2V496h208V64L288,64L288,64z M212,363.9
				c1.7-4.3,8.2-5.1,10.9-1.3c1.2,1.7,1.5,3.7,0.8,5.6l-5.3,15.8H204L212,363.9z M268.1,397.3l-38.5,19L151.4,432H50.1l-9.9-4.9V384
				h34.4l25.2-16.8l64.7-22.7c2.3-0.8,4.7-0.6,6.8,0.5c2.1,1.1,3.7,3,4.4,5.2c1.2,4-0.6,8.3-4.3,10.2l-44.7,23.8l31.6,15.8h75.9
				l27.5-15c1.7-0.9,3.7-1.1,5.5-0.5c1.9,0.6,3.3,1.9,4.1,3.7C272.9,391.6,271.5,395.6,268.1,397.3z M480,280v200H304V280V80h176
				V280z"/>
			<path class="st0" d="M392,192c-48.5,0-88,39.5-88,88s39.5,88,88,88s88-39.5,88-88S440.5,192,392,192z M392,352
				c-39.7,0-72-32.3-72-72s32.3-72,72-72s72,32.3,72,72S431.7,352,392,352z"/>
			<path class="st0" d="M408,248c-13.2,0-24,10.8-24,24v16c0,4.4-3.6,8-8,8s-8-3.6-8-8v-16c0-4.4,3.6-8,8-8v-16
				c-13.2,0-24,10.8-24,24h-16v16h16c0,13.2,10.8,24,24,24s24-10.8,24-24v-16c0-4.4,3.6-8,8-8s8,3.6,8,8v16c0,4.4-3.6,8-8,8v16
				c13.2,0,24-10.8,24-24h16v-16h-16C432,258.8,421.2,248,408,248z"/>
			<path class="st0" d="M160,144v-16c13.2,0,24-10.8,24-24s-10.8-24-24-24h-16c-4.4,0-8-3.6-8-8s3.6-8,8-8h16c4.4,0,8,3.6,8,8h16
				c0-13.2-10.8-24-24-24V32h-16v16c-13.2,0-24,10.8-24,24s10.8,24,24,24h16c4.4,0,8,3.6,8,8s-3.6,8-8,8h-16c-4.4,0-8-3.6-8-8h-16
				c0,13.2,10.8,24,24,24v16H160z"/>
			<path class="st0" d="M96,256H80v64h176v-48h16v-64h-32v-48h-37.6c22.7-15.9,37.6-42.2,37.6-72c0-48.5-39.5-88-88-88
				S64,39.5,64,88c0,29.8,14.9,56.1,37.6,72H64v64h32V256z M240,304H96v-32h16v16h16v-16h16v16h16v-16h16v16h16v-16h16v16h16v-16h16
				V304z M240,224h16v32H112v-32h16v16h16v-16h16v16h16v-16h16v16h16v-16h16v16h16V224z M80,88c0-39.7,32.3-72,72-72s72,32.3,72,72
				s-32.3,72-72,72S80,127.7,80,88z M80,208v-32h16v16h16v-16h16v16h16v-16h16v16h16v-16h16v16h16v-16h16v32H104h-8H80z"/>
		</g>
	</g>
</g>
</svg>
