<?xml version="1.0" encoding="utf-8"?>
<!-- Generator: Adobe Illustrator 22.1.0, SVG Export Plug-In . SVG Version: 6.00 Build 0)  -->
<svg version="1.1" id="Layer_1" xmlns="http://www.w3.org/2000/svg" xmlns:xlink="http://www.w3.org/1999/xlink" x="0px" y="0px"
	 viewBox="0 0 512 512" style="enable-background:new 0 0 512 512;" xml:space="preserve">
<style type="text/css">
	.st0{fill:#4E5D7D;}
</style>
<g>
	<path class="st0" d="M156,160c0,55.1,44.9,100,100,100s100-44.9,100-100S311.1,60,256,60S156,104.9,156,160z M176.6,170h39.5
		c0.9,24,4.8,47.9,12.2,65.1C200.9,224.9,180.4,200,176.6,170z M256,80c9.9,0,18.8,43.3,19.8,70h-39.6C237.2,124.2,246,80,256,80z
		 M275.8,170c-1,25.8-9.8,70-19.8,70c-9.9,0-18.8-43.3-19.8-70H275.8z M283.6,235.1C291,217.9,295,194,295.8,170h39.5
		C331.6,200,311.1,224.9,283.6,235.1z M335.4,150h-39.5c-0.9-24-4.8-47.9-12.2-65.1C311.1,95.1,331.6,120,335.4,150z M228.4,84.9
		C221,102.1,217,126,216.2,150h-39.5C180.4,120,200.9,95.1,228.4,84.9z"/>
	<path class="st0" d="M266,10c0,5.5-4.5,10-10,10s-10-4.5-10-10s4.5-10,10-10S266,4.5,266,10z"/>
	<path class="st0" d="M303.5,7.2c-5.3-1.6-10.9,1.3-12.5,6.6c-1.6,5.3,1.3,10.9,6.6,12.5C356.4,44.5,396,98.3,396,160
		c0,27.8-8.1,54.7-23.5,77.7c-0.1,0.1-0.1,0.2-0.2,0.2c-4.7,7.5-111.6,177.8-116.3,185.3c-4.7-7.5-111.6-177.8-116.3-185.3
		c-0.1-0.1-0.1-0.2-0.2-0.2c-15.4-23-23.5-49.9-23.5-77.7c0-61.7,39.6-115.5,98.5-133.7c5.3-1.6,8.2-7.2,6.6-12.5s-7.2-8.2-12.5-6.6
		C144.3,27.1,96,87.2,96,160c0,31.7,9.3,62.4,26.8,88.7l81,129c-35.1,8-77.8,28.9-77.8,64.3c0,50.2,79.5,70,130,70
		c50.9,0,130-20,130-70c0-35.4-42.7-56.3-77.8-64.3l81-129c17.5-26.3,26.8-57,26.8-88.7C416,87.3,367.8,27.1,303.5,7.2z M366,442
		c0,35.1-72.3,50-110,50c-41.6,0-110-16.5-110-50c0-19.6,28.7-38.5,69.2-46.2l32.4,51.6c1.8,2.9,5,4.7,8.5,4.7s6.6-1.8,8.5-4.7
		l32.4-51.6C337.3,403.5,366,422.4,366,442z"/>
</g>
</svg>
