<?xml version="1.0" encoding="utf-8"?>
<!-- Generator: Adobe Illustrator 22.1.0, SVG Export Plug-In . SVG Version: 6.00 Build 0)  -->
<svg version="1.1" id="Layer_1" xmlns="http://www.w3.org/2000/svg" xmlns:xlink="http://www.w3.org/1999/xlink" x="0px" y="0px"
	 viewBox="0 0 511 511" style="enable-background:new 0 0 511 511;" xml:space="preserve">
<style type="text/css">
	.st0{fill:#4E5D7D;}
</style>
<path class="st0" d="M420,58.5V41.5C420,18.1,400.9-1,377.5-1H110.4C86.9-1,67.9,18.1,67.9,41.5v426c0,23.5,19.1,42.5,42.5,42.5
	h267.1c23.4,0,42.5-19.1,42.5-42.5V273.1c0-4.2-3.4-7.6-7.6-7.6c-4.2,0-7.6,3.4-7.6,7.6v194.3c0,15.1-12.3,27.3-27.3,27.3H110.4
	c-15.1,0-27.3-12.3-27.3-27.3v-426c0-15.1,12.3-27.3,27.3-27.3h267.1c15.1,0,27.3,12.3,27.3,27.3v201.3c0,4.2,3.4,7.6,7.6,7.6
	c4.2,0,7.6-3.4,7.6-7.6V191c13.3-2.5,23.4-14.2,23.4-28.2V86.7C443.4,72.6,433.3,60.9,420,58.5z M428.2,162.8
	c0,5.6-3.4,10.4-8.2,12.4V74.2c4.8,2.1,8.2,6.9,8.2,12.4V162.8z"/>
<path class="st0" d="M221.2,466.2c0,12.6,10.2,22.8,22.8,22.8c12.6,0,22.8-10.2,22.8-22.8s-10.2-22.8-22.8-22.8
	C231.4,443.5,221.2,453.7,221.2,466.2z M251.5,466.2c0,4.2-3.4,7.6-7.6,7.6s-7.6-3.4-7.6-7.6c0-4.2,3.4-7.6,7.6-7.6
	S251.5,462.1,251.5,466.2z"/>
<path class="st0" d="M283.4,50.4c4.2,0,7.6-3.4,7.6-7.6s-3.4-7.6-7.6-7.6h-78.9c-4.2,0-7.6,3.4-7.6,7.6s3.4,7.6,7.6,7.6H283.4z"/>
<path class="st0" d="M177.1,50.2c3.1-0.6,5.5-3.1,6-6.2c0.5-3.2-1.2-6.5-4.1-8c-2.7-1.4-6.1-0.9-8.4,1.1c-2.4,2.2-3.2,5.8-1.9,8.7
	C170.1,49,173.7,51,177.1,50.2z"/>
<path class="st0" d="M390.4,400.7V112.9c0-18.6-15.1-33.7-33.7-33.7H131.1c-18.6,0-33.7,15.1-33.7,33.7v287.8
	c0,18.6,15.1,33.7,33.7,33.7h26.8c4.2,0,7.6-3.4,7.6-7.6c0-4.2-3.4-7.6-7.6-7.6h-26.8c-10.2,0-18.5-8.3-18.5-18.5V112.9
	c0-10.2,8.3-18.5,18.5-18.5h225.6c10.2,0,18.5,8.3,18.5,18.5v287.8c0,10.2-8.3,18.5-18.5,18.5H188.3c-4.2,0-7.6,3.4-7.6,7.6
	c0,4.2,3.4,7.6,7.6,7.6h168.5C375.3,434.4,390.4,419.3,390.4,400.7z"/>
<path class="st0" d="M296.7,272c3-3,3-7.8,0-10.7s-7.8-3-10.7,0c-23.2,23.2-60.9,23.2-84.1,0c-3-3-7.8-3-10.7,0c-3,3-3,7.8,0,10.7
	c14.6,14.6,33.7,21.8,52.8,21.8C263,293.8,282.2,286.6,296.7,272z"/>
<path class="st0" d="M161.3,168.9v32.2c0,4.2,3.4,7.6,7.6,7.6s7.6-3.4,7.6-7.6v-32.2c0-4.2-3.4-7.6-7.6-7.6S161.3,164.7,161.3,168.9
	z"/>
<path class="st0" d="M326.6,201.1v-32.2c0-4.2-3.4-7.6-7.6-7.6s-7.6,3.4-7.6,7.6v32.2c0,4.2,3.4,7.6,7.6,7.6
	S326.6,205.3,326.6,201.1z"/>
</svg>
