<?xml version="1.0" encoding="utf-8"?>
<!-- Generator: Adobe Illustrator 22.1.0, SVG Export Plug-In . SVG Version: 6.00 Build 0)  -->
<svg version="1.1" id="Layer_1" xmlns="http://www.w3.org/2000/svg" xmlns:xlink="http://www.w3.org/1999/xlink" x="0px" y="0px"
	 viewBox="0 0 480 480" style="enable-background:new 0 0 480 480;" xml:space="preserve">
<style type="text/css">
	.st0{fill:#4E5D7D;}
</style>
<path class="st0" d="M201.8,257.6l33.9,21.2c2.6,1.6,5.9,1.6,8.5,0l33.9-21.2c21.1-13.1,33.9-36.2,33.8-61.1v-60.4
	c0-4.4-3.5-8-7.9-8L288,128c-9.5,0-18.8-2.4-27.1-7c-5.4-3.7-10.1-8.2-14.1-13.3l-0.8-0.9c-1.6-1.7-3.8-2.6-6-2.6s-4.5,0.9-6,2.6
	l-0.8,0.9c-4,5.2-8.8,9.7-14.2,13.4c-8.3,4.6-17.6,7-27,7l-16,0.1c-4.4,0-7.9,3.6-7.9,8v60.4C167.9,221.4,180.7,244.5,201.8,257.6z
	 M184,144.1l8-0.1c12.1,0,24.1-3.1,34.7-9c5-2.9,9.5-6.6,13.3-11c3.8,4.3,8.3,8,13.2,10.9c10.6,5.9,22.6,9,34.7,9l8.1,0.1v52.5
	c0.1,19.3-9.9,37.3-26.3,47.5L240,262.6L210.3,244c-16.4-10.2-26.4-28.2-26.3-47.5V144.1z"/>
<path class="st0" d="M232,216c2.1,0,4.2-0.8,5.7-2.3l48-48l-11.3-11.3L232,196.7l-18.3-18.3l-11.3,11.3l24,24
	C227.8,215.2,229.9,216,232,216z"/>
<path class="st0" d="M440,0H40C17.9,0,0,17.9,0,40v304c0,22.1,17.9,40,40,40h134.9l-6,48H152c-13.3,0-24,10.7-24,24s10.7,24,24,24
	h176c13.3,0,24-10.7,24-24s-10.7-24-24-24h-16.9l-6-48H440c22.1,0,40-17.9,40-40V40C480,17.9,462.1,0,440,0z M40,16h400
	c13.3,0,24,10.7,24,24v24H16V40C16,26.7,26.7,16,40,16z M464,80v224H16V80H464z M336,456c0,4.4-3.6,8-8,8H152c-4.4,0-8-3.6-8-8
	s3.6-8,8-8h176C332.4,448,336,451.6,336,456z M294.9,432H185.1l6-48h97.9L294.9,432z M440,368H40c-13.3,0-24-10.7-24-24v-24h448v24
	C464,357.3,453.3,368,440,368z"/>
<path class="st0" d="M416,336h16v16h-16V336z"/>
<path class="st0" d="M48,32h16v16H48V32z"/>
<path class="st0" d="M80,32h16v16H80V32z"/>
<path class="st0" d="M112,32h16v16h-16V32z"/>
</svg>
