<svg id="Capa_1" data-name="Capa 1" xmlns="http://www.w3.org/2000/svg" viewBox="0 0 512 431.84"><defs><style>.cls-1{fill:#ff9a33;}</style></defs><title>ico32</title><path class="cls-1" d="M480.45,40.08H31.55A31.58,31.58,0,0,0,0,71.63V376.24a31.58,31.58,0,0,0,31.55,31.55H183.38l-6.15,49.13H151.79a7.5,7.5,0,0,0,0,15H360.21a7.5,7.5,0,0,0,0-15H334.77l-6.15-49.13H480.45A31.58,31.58,0,0,0,512,376.24V71.63A31.58,31.58,0,0,0,480.45,40.08ZM192.35,456.92l6.14-49.13H226.1l2.7,10.83a28,28,0,0,0,54.4,0l2.71-10.83h27.6l6.14,49.13Zm49.21-49.13h28.88l-1.8,7.19a13,13,0,0,1-25.29,0ZM497,376.24h0a16.56,16.56,0,0,1-16.55,16.55H31.55A16.56,16.56,0,0,1,15,376.24V71.63A16.56,16.56,0,0,1,31.55,55.08h448.9A16.56,16.56,0,0,1,497,71.63V376.24Z" transform="translate(0 -40.08)"/><path class="cls-1" d="M424.34,72.15H39.56a7.5,7.5,0,0,0-7.5,7.5V368.23a7.5,7.5,0,0,0,7.5,7.5h16a7.5,7.5,0,1,0,0-15H47.06V87.15H424.34a7.5,7.5,0,0,0,0-15Z" transform="translate(0 -40.08)"/><path class="cls-1" d="M472.44,72.15h-16a7.5,7.5,0,0,0,0,15h8.54V360.73H87.66a7.5,7.5,0,1,0,0,15H472.43a7.5,7.5,0,0,0,7.5-7.5V79.65A7.48,7.48,0,0,0,472.44,72.15Z" transform="translate(0 -40.08)"/><path class="cls-1" d="M358.1,155.18a7.51,7.51,0,0,0-5.56-2.87l-176.36-8h-.41a15.54,15.54,0,0,0-6.24-8.39l-21.59-14.4A7.5,7.5,0,0,0,139.62,134l21.59,14.4a.51.51,0,0,1,.21.29L188.93,245a23.56,23.56,0,0,0,4.09,8L183,273.11a15.55,15.55,0,0,0,4.53,19.33,23.53,23.53,0,1,0,42.35,3.12h68.38a23.32,23.32,0,0,0-1.61,8.54,23.53,23.53,0,0,0,47.06,0,23.31,23.31,0,0,0-2.47-10.48,7.5,7.5,0,0,0-5-13.06H196.82a.45.45,0,0,1-.43-.24.47.47,0,0,1,0-.5l9.28-18.55a23.24,23.24,0,0,0,5.86.75,24.31,24.31,0,0,0,2.81-.16l105.38-12.4a31.48,31.48,0,0,0,27.25-25.15l12.61-63A7.51,7.51,0,0,0,358.1,155.18Zm-38,140.39a8.53,8.53,0,1,1-8.53,8.53A8.54,8.54,0,0,1,320.13,295.57Zm-112.23,0a8.53,8.53,0,1,1-8.53,8.53A8.54,8.54,0,0,1,207.9,295.57ZM189.51,192.39l-9.4-32.9,30,1.36,5.2,31.54Zm23,54.57a8.5,8.5,0,0,1-9.2-6.13l-9.55-33.44h24l6.3,38.21Zm44-5.17L239,243.85l-6-36.46h23.55Zm0-49.4h-26l-5.08-30.84,31.1,1.42Zm38,44.93-23,2.7V207.39h25.69Zm4.07-44.93H271.52V163.65L301.05,165Zm33.66,29a16.5,16.5,0,0,1-14.29,13.19l-8.22,1,2.55-28.14H335Zm5.8-29h-24.4l2.42-26.72,27.08,1.23Z" transform="translate(0 -40.08)"/></svg>