<?xml version="1.0" encoding="utf-8"?>
<!-- Generator: Adobe Illustrator 22.1.0, SVG Export Plug-In . SVG Version: 6.00 Build 0)  -->
<svg version="1.1" id="Capa_1" xmlns="http://www.w3.org/2000/svg" xmlns:xlink="http://www.w3.org/1999/xlink" x="0px" y="0px"
	 viewBox="0 0 512 512" style="enable-background:new 0 0 512 512;" xml:space="preserve">
<style type="text/css">
	.st0{fill:#FF9A33;}
</style>
<g>
	<g>
		<path class="st0" d="M488.5,448.9h-8.5V226.4c19.3-12.4,32.1-34,32.1-58.6c0-1.3-0.3-2.6-1-3.7L451.5,60
			c-4.2-7.3-12-11.9-20.4-11.9H80.9c-8.4,0-16.3,4.5-20.4,11.9L1,164.1c-0.6,1.1-1,2.4-1,3.7c0,24.6,12.8,46.2,32.1,58.6v222.5h-8.5
			c-4.1,0-7.5,3.4-7.5,7.5s3.4,7.5,7.5,7.5h464.9c4.1,0,7.5-3.4,7.5-7.5C496,452.3,492.6,448.9,488.5,448.9z M15.5,175.3h24
			c4.1,0,7.5-3.4,7.5-7.5s-3.4-7.5-7.5-7.5H20.4l53.1-92.9c1.5-2.7,4.4-4.3,7.4-4.3h350.1c3.1,0,5.9,1.6,7.4,4.3l53.1,92.9h-19.1
			c-4.1,0-7.5,3.4-7.5,7.5s3.4,7.5,7.5,7.5h24c-3.7,26.6-26.5,47.1-54.1,47.1c-27.6,0-50.4-20.5-54.1-47.1h52.1
			c4.1,0,7.5-3.4,7.5-7.5s-3.4-7.5-7.5-7.5H71.6c-4.1,0-7.5,3.4-7.5,7.5s3.4,7.5,7.5,7.5h52.1c-3.7,26.6-26.5,47.1-54.1,47.1
			C42,222.4,19.2,201.9,15.5,175.3z M372.2,175.3c-3.7,26.6-26.5,47.1-54.1,47.1c-27.6,0-50.4-20.5-54.1-47.1H372.2z M248,175.3
			c-3.7,26.6-26.5,47.1-54.1,47.1s-50.4-20.5-54.1-47.1H248z M424.9,448.9h-81.2v-25.1h81.2V448.9z M424.9,408.8h-81.2V271.5h81.2
			V408.8z M464.9,448.9h-25.1V264c0-4.1-3.4-7.5-7.5-7.5h-96.2c-4.1,0-7.5,3.4-7.5,7.5v184.9H47.1V233.7c7.1,2.4,14.7,3.8,22.6,3.8
			c27.1,0,50.6-15.6,62.1-38.2c11.5,22.6,35,38.2,62.1,38.2s50.6-15.6,62.1-38.2c11.5,22.6,35,38.2,62.1,38.2s50.6-15.6,62.1-38.2
			c11.5,22.6,35,38.2,62.1,38.2c7.9,0,15.5-1.3,22.6-3.8V448.9z"/>
	</g>
</g>
<g>
	<g>
		<path class="st0" d="M296.1,256.5H79.6c-4.1,0-7.5,3.4-7.5,7.5v152.3c0,4.1,3.4,7.5,7.5,7.5h216.4c4.1,0,7.5-3.4,7.5-7.5V264
			C303.6,259.9,300.2,256.5,296.1,256.5z M288.6,408.8H87.1V271.5h201.4V408.8z"/>
	</g>
</g>
</svg>
