<svg id="Layer_1" data-name="Layer 1" xmlns="http://www.w3.org/2000/svg" viewBox="0 0 84 84"><defs><style>.cls-1{fill:#ff9a1e;}</style></defs><title>Artboard 4 copy 2</title><path class="cls-1" d="M56.27,26.16a1.57,1.57,0,1,0,1.57,1.57A1.57,1.57,0,0,0,56.27,26.16Z"/><path class="cls-1" d="M27.73,54.69a1.58,1.58,0,1,0,1.57,1.58A1.58,1.58,0,0,0,27.73,54.69Z"/><path class="cls-1" d="M80.25,11.46a1.59,1.59,0,0,0-1.47.42l-6.51,6.56H69.15l-3.44-3.55V11.72l6.42-6.51a1.57,1.57,0,0,0-.62-2.59A15.7,15.7,0,0,0,53.75,8.34a15.5,15.5,0,0,0-2.42,13.23L39.76,33.14,20.49,13.82V10a1.55,1.55,0,0,0-.77-1.34L8.62,2a1.57,1.57,0,0,0-1.92.24L2.26,6.7A1.56,1.56,0,0,0,2,8.62l6.66,11.1a1.56,1.56,0,0,0,1.34.76h3.79L33.1,39.8,21.57,51.32A15.72,15.72,0,0,0,1.8,66.5a15.75,15.75,0,0,0,.82,5,1.55,1.55,0,0,0,1.13,1,1.59,1.59,0,0,0,1.47-.42l6.51-6.57h3.14l3.58,3.58v3.14l-6.57,6.51a1.59,1.59,0,0,0-.42,1.47,1.55,1.55,0,0,0,1,1.13,15.75,15.75,0,0,0,5,.82A15.72,15.72,0,0,0,32.68,62.43l9.25-9.26,2.12,2.31-1,1a1.56,1.56,0,0,0,0,2.22,1.58,1.58,0,0,0,2.22,0l.88-.88,19.89,21.6a.12.12,0,0,0,.05,0A9.42,9.42,0,1,0,79.44,66.11l0,0L57.75,46.22l.87-.88a1.56,1.56,0,0,0,0-2.22,1.58,1.58,0,0,0-2.22,0l-1,1L53.13,42l9.3-9.3a15.42,15.42,0,0,0,4.07.54A15.71,15.71,0,0,0,81.38,12.49,1.55,1.55,0,0,0,80.25,11.46ZM15.59,17.81a1.56,1.56,0,0,0-1.12-.45H10.92L5.35,8.05l2.71-2.7,9.29,5.57v3.55a1.57,1.57,0,0,0,.45,1.11L37.54,35.36l-2.22,2.22ZM55.53,48.44,77.24,68.36a6.28,6.28,0,0,1-8.88,8.88l-20-21.68Zm-2.32-2.13-6.94,6.94L44.15,51l6.76-6.75ZM66.5,30.06a12.68,12.68,0,0,1-4-.65,1.57,1.57,0,0,0-1.61.38L29.79,60.87a1.57,1.57,0,0,0-.38,1.61A12.57,12.57,0,0,1,17.5,79.06c-.46,0-.91,0-1.37-.07l5-4.95a1.58,1.58,0,0,0,.47-1.12V68.48a1.57,1.57,0,0,0-.46-1.11l-4.5-4.5a1.57,1.57,0,0,0-1.11-.46H11.08a1.58,1.58,0,0,0-1.12.47l-5,5a12.57,12.57,0,0,1-.07-1.37A12.57,12.57,0,0,1,21.52,54.59a1.57,1.57,0,0,0,1.61-.38L54.21,23.13a1.58,1.58,0,0,0,.38-1.61A12.57,12.57,0,0,1,66.5,4.94,13.33,13.33,0,0,1,67.91,5L63,10a1.58,1.58,0,0,0-.45,1.11v4.44A1.57,1.57,0,0,0,63,16.61l4.34,4.5a1.59,1.59,0,0,0,1.13.47h4.44A1.57,1.57,0,0,0,74,21.12l4.95-5c0,.46.07.91.07,1.37A12.58,12.58,0,0,1,66.5,30.06Z"/><path class="cls-1" d="M50.71,31.06,31.06,50.71a1.58,1.58,0,1,0,2.23,2.23L52.94,33.28a1.57,1.57,0,1,0-2.23-2.22Z"/><path class="cls-1" d="M70.56,72.78a1.57,1.57,0,0,0,2.22-2.23L58.62,56.45a1.57,1.57,0,0,0-2.22,2.22Z"/></svg>