<svg id="Layer_1" data-name="Layer 1" xmlns="http://www.w3.org/2000/svg" viewBox="0 0 84 84"><defs><style>.cls-1{fill:#ff9a1e;}</style></defs><title>Artboard 4 copy</title><path class="cls-1" d="M78.3,34.16V14.75H62.73V25.13h13v7.69c-5-2.21-12.55-3.72-20.75-4.5V22.53h5.19V1.78H23.83V22.53H29v5.79a105.05,105.05,0,0,0-11.67,1.74V14.75H1.79V25.13h13v5.54c-7.7,2-13,4.9-13,8.72V73.11c0,7.18,26.29,9.07,40.2,9.07s40.2-1.89,40.2-9.07V39.39C82.19,37.4,80.75,35.66,78.3,34.16Zm-13-11.63V17.35H75.7v5.18Zm-60.95,0V17.35H14.75v5.18ZM79.59,39.39c0,1.42-2,3-5.74,4.53-2.68-2.13-8.07-3.65-14.4-4.6l6.72-6.71C74.76,34.49,79.59,37.19,79.59,39.39ZM47.17,22.53v5.29c-1.73-.07-3.46-.1-5.18-.1s-3.46,0-5.19.1V22.53ZM43.28,38.1V30.32A120.75,120.75,0,0,1,63.1,32l-6.89,6.89A126.22,126.22,0,0,0,43.28,38.1Zm-2.59-7.78V38.1a126.4,126.4,0,0,0-12.93.79L20.87,32A120.75,120.75,0,0,1,40.69,30.32ZM42,40.69c13.63,0,24.19,2,28.75,4.31C64.23,47,54.38,48.47,42,48.47S19.74,47,13.23,45C17.79,42.69,28.35,40.69,42,40.69ZM52.36,28.11c-.86-.07-1.72-.12-2.59-.17V22.53h2.59ZM26.42,4.38H57.55V19.94H26.42Zm5.19,18.15h2.6v5.41c-.87,0-1.74.1-2.6.17ZM17.81,32.61l6.71,6.71c-6.33,1-11.72,2.47-14.39,4.6-3.74-1.48-5.75-3.11-5.75-4.53C4.38,37.19,9.21,34.49,17.81,32.61ZM4.38,59.31c4.46,3.47,14,5.63,23.34,6.6v5.17C12.56,69.46,4.38,65.63,4.38,62.73ZM53.66,79.23c-.85.06-1.71.11-2.6.15V66.62H32.91V79.38c-.89,0-1.75-.09-2.6-.15V64H53.66Zm-13,.35q-2.69,0-5.19-.09V69.22h5.19Zm2.59-10.36h5.19V79.48c-1.66.06-3.4.09-5.19.1ZM4.38,73.11v-6c4.46,3.47,14,5.63,23.34,6.6v5.36C12.52,77.83,4.38,74.83,4.38,73.11Zm51.87,5.94V73.69c9.33-1,18.88-3.13,23.34-6.6v6C79.59,74.83,71.46,77.83,56.25,79.05Zm0-8V65.91c9.33-1,18.88-3.13,23.34-6.6v3.42C79.59,65.63,71.41,69.46,56.25,71.08Zm0-7.79V61.44H27.72v1.85C12.56,61.68,4.38,57.85,4.38,55V51.52C10.52,56.3,26.63,58.84,42,58.84s31.46-2.54,37.6-7.32V55C79.59,57.85,71.41,61.68,56.25,63.29ZM42,56.25c-23.3,0-37.61-5.29-37.61-9.08V43.74c6.14,4.78,22.25,7.32,37.61,7.32s31.46-2.54,37.6-7.32v3.43C79.59,51,65.29,56.25,42,56.25Z"/><path class="cls-1" d="M29,17.35H39.39V7H29Zm2.59-7.78H36.8v5.18H31.61Z"/><path class="cls-1" d="M44.58,17.35H55V7H44.58Zm2.59-7.78h5.19v5.18H47.17Z"/></svg>