<svg id="Layer_1" data-name="Layer 1" xmlns="http://www.w3.org/2000/svg" viewBox="0 0 84 84"><defs><style>.cls-1{fill:#ff9a1e;}</style></defs><title>Artboard 4</title><path class="cls-1" d="M82.1,73.55l-2.17-5.2v0L62.58,26.72A1.16,1.16,0,0,0,61.5,26H55.77a1.18,1.18,0,1,0,0,2.35h4.94L77.07,67.62H40.6L24.24,28.35H51.06a1.18,1.18,0,1,0,0-2.35H23.65V20.55H36.78A1.18,1.18,0,0,0,38,19.37V10.26a1.17,1.17,0,0,0-1.18-1.17H23.65V9A1.18,1.18,0,1,0,21.3,9v18L7.7,59.57,2.11,65.38a1.19,1.19,0,0,0,0,1.65l1.74,1.74-2,4.78A1.17,1.17,0,0,0,3,75.18H81a1.18,1.18,0,0,0,1-.53A1.16,1.16,0,0,0,82.1,73.55ZM23.65,11.44h12v6.75h-12ZM4.73,72.82l.94-2.25,2.26,2.25Zm5.63-.9L6.1,67.67h0L4.61,66.18,19,51.24Zm2.18.9L22.48,49l9.94,23.85Zm22.43,0L23.56,45.45h0a.61.61,0,0,0-.07-.14l0,0-.08-.12h0l-.09-.1h0l0,0-.1-.07,0,0L23,44.84h0l-.13,0h0l-.15,0h-.38l-.14,0h0l-.15,0,0,0-.13.07h0L21.7,45l0,0,0,0-9.43,9.8,9.1-21.83v4.52a1.18,1.18,0,1,0,2.35,0V33.06C27.44,42.15,35,60.31,38.73,69.25h0c.6,1.46,1.11,2.68,1.48,3.56Zm7.8,0L41.58,70H78.06l1.18,2.85Z"/></svg>