<svg id="Layer_1" data-name="Layer 1" xmlns="http://www.w3.org/2000/svg" viewBox="0 0 84 84"><defs><style>.cls-1{fill:#ff9a1e;}</style></defs><title>Artboard 4 copy 3</title><path class="cls-1" d="M58.72,28.88l-.86-2.83a6.16,6.16,0,0,0-11.65,0l-.86,2.83a16,16,0,0,0-.44,7.37,6.91,6.91,0,0,0,3.57,4.83l-1,21.54a4.3,4.3,0,0,0,1.08,3.3,4.68,4.68,0,0,0,6.61.3l.3-.3a4.2,4.2,0,0,0,1.07-3.21l-1-21.63a6.9,6.9,0,0,0,3.56-4.83A15.85,15.85,0,0,0,58.72,28.88Zm-2.2,6.91A4.27,4.27,0,0,1,53.74,39a1.32,1.32,0,0,0-.86,1.31l1,22.62a1.55,1.55,0,0,1-.4,1.22,2.06,2.06,0,0,1-2.91,0,1.61,1.61,0,0,1-.39-1.31l1-22.53A1.34,1.34,0,0,0,50.33,39a4.27,4.27,0,0,1-2.78-3.2,13.21,13.21,0,0,1,.37-6.12l.86-2.84a3.47,3.47,0,0,1,6.51,0l.87,2.84A13.21,13.21,0,0,1,56.52,35.79Z"/><path class="cls-1" d="M38,21.88a1.34,1.34,0,0,0-1.34,1.34V34.73L33,38.36a1.3,1.3,0,0,0-.39,1l1.17,23.45a1.83,1.83,0,0,1-.51,1.37,1.89,1.89,0,0,1-2.67,0h0a1.83,1.83,0,0,1-.5-1.37l1.18-23.45a1.36,1.36,0,0,0-.4-1l-3.62-3.63V23.22a1.34,1.34,0,1,0-2.68,0V35.28a1.34,1.34,0,0,0,.39.95l3.6,3.6L27.41,62.69a4.53,4.53,0,0,0,9.05.44v-.44L35.31,39.83l3.6-3.6a1.35,1.35,0,0,0,.4-.95V23.22A1.34,1.34,0,0,0,38,21.88Z"/><path class="cls-1" d="M29.93,21.88a1.34,1.34,0,0,0-1.34,1.34V33.94a1.34,1.34,0,0,0,2.68,0V23.22A1.34,1.34,0,0,0,29.93,21.88Z"/><path class="cls-1" d="M34,21.88a1.34,1.34,0,0,0-1.34,1.34V33.94a1.34,1.34,0,1,0,2.68,0V23.22A1.34,1.34,0,0,0,34,21.88Z"/><path class="cls-1" d="M42,1.78A40.2,40.2,0,1,0,82.19,42,40.2,40.2,0,0,0,42,1.78ZM42,79.5A37.52,37.52,0,1,1,79.51,42,37.51,37.51,0,0,1,42,79.5Z"/><path class="cls-1" d="M46.34,67.14a1.34,1.34,0,0,0-1.47-1.2h0a24.52,24.52,0,0,1-5.68,0,1.34,1.34,0,1,0-.32,2.66,26.55,26.55,0,0,0,6.3,0A1.34,1.34,0,0,0,46.34,67.14Z"/><path class="cls-1" d="M62.49,24.72a1.35,1.35,0,0,0-1.89-.17h0a1.34,1.34,0,0,0-.16,1.88A24.13,24.13,0,0,1,59,59.07,1.34,1.34,0,0,0,60.9,61,26.8,26.8,0,0,0,62.49,24.72Z"/><path class="cls-1" d="M33,19.5h0Z"/><path class="cls-1" d="M48.31,15.93a27.16,27.16,0,0,0-15.78,1A1.34,1.34,0,0,0,33,19.5a1.27,1.27,0,0,0,.47-.09,24.36,24.36,0,0,1,14.21-.87,1.34,1.34,0,0,0,.63-2.61Z"/><path class="cls-1" d="M24.9,59a24.12,24.12,0,0,1-2.42-31.2,1.34,1.34,0,1,0-2.15-1.61l0,0A26.79,26.79,0,0,0,23,60.9,1.34,1.34,0,1,0,24.9,59Z"/></svg>